<svg id="SvgjsSvg1001" width="2" height="0" xmlns="http://www.w3.org/2000/svg" version="1.1" xmlns:xlink="http://www.w3.org/1999/xlink" xmlns:svgjs="http://svgjs.dev" style="overflow: hidden; top: -100%; left: -100%; position: absolute; opacity: 0;"><defs id="SvgjsDefs1002"></defs><polyline id="SvgjsPolyline1003" points="0,0"></polyline><path id="SvgjsPath1004" d="M-1 40L-1 40C-1 40 7.142857142857142 40 7.142857142857142 40C7.142857142857142 40 14.285714285714285 40 14.285714285714285 40C14.285714285714285 40 21.428571428571427 40 21.428571428571427 40C21.428571428571427 40 28.57142857142857 40 28.57142857142857 40C28.57142857142857 40 35.71428571428571 40 35.71428571428571 40C35.71428571428571 40 42.857142857142854 40 42.857142857142854 40C42.857142857142854 40 49.99999999999999 40 49.99999999999999 40C49.99999999999999 40 57.14285714285714 40 57.14285714285714 40C57.14285714285714 40 64.28571428571428 40 64.28571428571428 40C64.28571428571428 40 71.42857142857142 40 71.42857142857142 40C71.42857142857142 40 78.57142857142857 40 78.57142857142857 40C78.57142857142857 40 85.71428571428571 40 85.71428571428571 40C85.71428571428571 40 92.85714285714285 40 92.85714285714285 40C92.85714285714285 40 99.99999999999999 40 99.99999999999999 40C99.99999999999999 40 99.99999999999999 40 99.99999999999999 40 "></path></svg>