<svg width="44" height="44" viewBox="0 0 44 44" fill="none" xmlns="http://www.w3.org/2000/svg">
                      <path d="M14.6667 3.66699V9.16699" stroke="#58BD7D" stroke-width="2" stroke-miterlimit="10" stroke-linecap="round" stroke-linejoin="round"></path>
                      <path d="M29.3333 3.66699V9.16699" stroke="#58BD7D" stroke-width="2" stroke-miterlimit="10" stroke-linecap="round" stroke-linejoin="round"></path>
                      <path d="M6.41675 16.665H37.5834" stroke="#58BD7D" stroke-width="2" stroke-miterlimit="10" stroke-linecap="round" stroke-linejoin="round"></path>
                      <path d="M40.3334 34.8333C40.3334 36.2083 39.9484 37.51 39.2701 38.61C38.0051 40.7367 35.6768 42.1667 33.0001 42.1667C31.1484 42.1667 29.4618 41.4883 28.1784 40.3333C27.6101 39.8567 27.1151 39.27 26.7301 38.61C26.0518 37.51 25.6667 36.2083 25.6667 34.8333C25.6667 30.7817 28.9484 27.5 33.0001 27.5C35.2001 27.5 37.1618 28.4716 38.5001 29.9933C39.6368 31.295 40.3334 32.9817 40.3334 34.8333Z" stroke="#58BD7D" stroke-width="2" stroke-miterlimit="10" stroke-linecap="round" stroke-linejoin="round"></path>
                      <path d="M30.1401 34.8338L31.9551 36.6488L35.8601 33.0371" stroke="#58BD7D" stroke-width="2" stroke-linecap="round" stroke-linejoin="round"></path>
                      <path d="M38.5 15.5837V29.9936C37.1617 28.472 35.2 27.5003 33 27.5003C28.9483 27.5003 25.6667 30.782 25.6667 34.8337C25.6667 36.2087 26.0517 37.5103 26.73 38.6103C27.115 39.2703 27.61 39.857 28.1783 40.3337H14.6667C8.25 40.3337 5.5 36.667 5.5 31.167V15.5837C5.5 10.0837 8.25 6.41699 14.6667 6.41699H29.3333C35.75 6.41699 38.5 10.0837 38.5 15.5837Z" stroke="#58BD7D" stroke-width="2" stroke-miterlimit="10" stroke-linecap="round" stroke-linejoin="round"></path>
                      <path d="M21.9918 25.1169H22.0083" stroke="#58BD7D" stroke-width="3" stroke-linecap="round" stroke-linejoin="round"></path>
                      <path d="M15.2062 25.1169H15.2226" stroke="#58BD7D" stroke-width="3" stroke-linecap="round" stroke-linejoin="round"></path>
                      <path d="M15.2062 30.6169H15.2226" stroke="#58BD7D" stroke-width="3" stroke-linecap="round" stroke-linejoin="round"></path>
                    </svg>