<svg id="SvgjsSvg1006" width="100" height="40" xmlns="http://www.w3.org/2000/svg" version="1.1" xmlns:xlink="http://www.w3.org/1999/xlink" xmlns:svgjs="http://svgjs.dev" class="apexcharts-svg" xmlns:data="ApexChartsNS" transform="translate(0, 0)" style="background: transparent;"><g id="SvgjsG1008" class="apexcharts-inner apexcharts-graphical" transform="translate(0, 0)"><defs id="SvgjsDefs1007"><clipPath id="gridRectMasksobw18uo"><rect id="SvgjsRect1014" width="106" height="42" x="-3" y="-1" rx="0" ry="0" opacity="1" stroke-width="0" stroke="none" stroke-dasharray="0" fill="#fff"></rect></clipPath><clipPath id="forecastMasksobw18uo"></clipPath><clipPath id="nonForecastMasksobw18uo"></clipPath><clipPath id="gridRectMarkerMasksobw18uo"><rect id="SvgjsRect1015" width="104" height="44" x="-2" y="-2" rx="0" ry="0" opacity="1" stroke-width="0" stroke="none" stroke-dasharray="0" fill="#fff"></rect></clipPath><linearGradient id="SvgjsLinearGradient1020" x1="0" y1="0" x2="0" y2="1"><stop id="SvgjsStop1021" stop-opacity="0.65" stop-color="rgba(88,189,125,0.65)" offset="0"></stop><stop id="SvgjsStop1022" stop-opacity="0.5" stop-color="rgba(172,222,190,0.5)" offset="1"></stop><stop id="SvgjsStop1023" stop-opacity="0.5" stop-color="rgba(172,222,190,0.5)" offset="1"></stop></linearGradient></defs><line id="SvgjsLine1013" x1="0" y1="0" x2="0" y2="40" stroke="#b6b6b6" stroke-dasharray="3" stroke-linecap="butt" class="apexcharts-xcrosshairs" x="0" y="0" width="1" height="40" fill="#b1b9c4" filter="none" fill-opacity="0.9" stroke-width="1"></line><g id="SvgjsG1026" class="apexcharts-xaxis" transform="translate(0, 0)"><g id="SvgjsG1027" class="apexcharts-xaxis-texts-g" transform="translate(0, 4)"></g></g><g id="SvgjsG1044" class="apexcharts-grid"><g id="SvgjsG1045" class="apexcharts-gridlines-horizontal" style="display: none;"><line id="SvgjsLine1047" x1="0" y1="0" x2="100" y2="0" stroke="#e0e0e0" stroke-dasharray="0" stroke-linecap="butt" class="apexcharts-gridline"></line><line id="SvgjsLine1048" x1="0" y1="8" x2="100" y2="8" stroke="#e0e0e0" stroke-dasharray="0" stroke-linecap="butt" class="apexcharts-gridline"></line><line id="SvgjsLine1049" x1="0" y1="16" x2="100" y2="16" stroke="#e0e0e0" stroke-dasharray="0" stroke-linecap="butt" class="apexcharts-gridline"></line><line id="SvgjsLine1050" x1="0" y1="24" x2="100" y2="24" stroke="#e0e0e0" stroke-dasharray="0" stroke-linecap="butt" class="apexcharts-gridline"></line><line id="SvgjsLine1051" x1="0" y1="32" x2="100" y2="32" stroke="#e0e0e0" stroke-dasharray="0" stroke-linecap="butt" class="apexcharts-gridline"></line><line id="SvgjsLine1052" x1="0" y1="40" x2="100" y2="40" stroke="#e0e0e0" stroke-dasharray="0" stroke-linecap="butt" class="apexcharts-gridline"></line></g><g id="SvgjsG1046" class="apexcharts-gridlines-vertical" style="display: none;"></g><line id="SvgjsLine1054" x1="0" y1="40" x2="100" y2="40" stroke="transparent" stroke-dasharray="0" stroke-linecap="butt"></line><line id="SvgjsLine1053" x1="0" y1="1" x2="0" y2="40" stroke="transparent" stroke-dasharray="0" stroke-linecap="butt"></line></g><g id="SvgjsG1016" class="apexcharts-area-series apexcharts-plot-series"><g id="SvgjsG1017" class="apexcharts-series" seriesName="seriesx1" data:longestSeries="true" rel="1" data:realIndex="0"><path id="SvgjsPath1024" d="M0 40L0 30C2.4999999999999996 30 4.642857142857142 13.600000000000001 7.142857142857142 13.600000000000001C9.642857142857142 13.600000000000001 11.785714285714285 23.6 14.285714285714285 23.6C16.785714285714285 23.6 18.928571428571427 4.399999999999999 21.428571428571427 4.399999999999999C23.928571428571427 4.399999999999999 26.07142857142857 14.8 28.57142857142857 14.8C31.07142857142857 14.8 33.21428571428571 30 35.71428571428571 30C38.21428571428571 30 40.357142857142854 22.4 42.857142857142854 22.4C45.357142857142854 22.4 47.49999999999999 32 49.99999999999999 32C52.49999999999999 32 54.64285714285714 25.6 57.14285714285714 25.6C59.64285714285714 25.6 61.78571428571428 24 64.28571428571428 24C66.78571428571428 24 68.92857142857142 18.4 71.42857142857142 18.4C73.92857142857142 18.4 76.07142857142857 4.399999999999999 78.57142857142857 4.399999999999999C81.07142857142857 4.399999999999999 83.21428571428571 14.8 85.71428571428571 14.8C88.21428571428571 14.8 90.35714285714285 30 92.85714285714285 30C95.35714285714285 30 97.49999999999999 8 99.99999999999999 8C99.99999999999999 8 99.99999999999999 8 99.99999999999999 40M99.99999999999999 8C99.99999999999999 8 99.99999999999999 8 99.99999999999999 8 " fill="url(#SvgjsLinearGradient1020)" fill-opacity="1" stroke-opacity="1" stroke-linecap="butt" stroke-width="0" stroke-dasharray="0" class="apexcharts-area" index="0" clip-path="url(#gridRectMasksobw18uo)" pathTo="M 0 40L 0 30C 2.4999999999999996 30 4.642857142857142 13.600000000000001 7.142857142857142 13.600000000000001C 9.642857142857142 13.600000000000001 11.785714285714285 23.6 14.285714285714285 23.6C 16.785714285714285 23.6 18.928571428571427 4.399999999999999 21.428571428571427 4.399999999999999C 23.928571428571427 4.399999999999999 26.07142857142857 14.8 28.57142857142857 14.8C 31.07142857142857 14.8 33.21428571428571 30 35.71428571428571 30C 38.21428571428571 30 40.357142857142854 22.4 42.857142857142854 22.4C 45.357142857142854 22.4 47.49999999999999 32 49.99999999999999 32C 52.49999999999999 32 54.64285714285714 25.6 57.14285714285714 25.6C 59.64285714285714 25.6 61.78571428571428 24 64.28571428571428 24C 66.78571428571428 24 68.92857142857142 18.4 71.42857142857142 18.4C 73.92857142857142 18.4 76.07142857142857 4.399999999999999 78.57142857142857 4.399999999999999C 81.07142857142857 4.399999999999999 83.21428571428571 14.8 85.71428571428571 14.8C 88.21428571428571 14.8 90.35714285714285 30 92.85714285714285 30C 95.35714285714285 30 97.49999999999999 8 99.99999999999999 8C 99.99999999999999 8 99.99999999999999 8 99.99999999999999 40M 99.99999999999999 8z" pathFrom="M -1 40L -1 40L 7.142857142857142 40L 14.285714285714285 40L 21.428571428571427 40L 28.57142857142857 40L 35.71428571428571 40L 42.857142857142854 40L 49.99999999999999 40L 57.14285714285714 40L 64.28571428571428 40L 71.42857142857142 40L 78.57142857142857 40L 85.71428571428571 40L 92.85714285714285 40L 99.99999999999999 40"></path><path id="SvgjsPath1025" d="M0 30C2.4999999999999996 30 4.642857142857142 13.600000000000001 7.142857142857142 13.600000000000001C9.642857142857142 13.600000000000001 11.785714285714285 23.6 14.285714285714285 23.6C16.785714285714285 23.6 18.928571428571427 4.399999999999999 21.428571428571427 4.399999999999999C23.928571428571427 4.399999999999999 26.07142857142857 14.8 28.57142857142857 14.8C31.07142857142857 14.8 33.21428571428571 30 35.71428571428571 30C38.21428571428571 30 40.357142857142854 22.4 42.857142857142854 22.4C45.357142857142854 22.4 47.49999999999999 32 49.99999999999999 32C52.49999999999999 32 54.64285714285714 25.6 57.14285714285714 25.6C59.64285714285714 25.6 61.78571428571428 24 64.28571428571428 24C66.78571428571428 24 68.92857142857142 18.4 71.42857142857142 18.4C73.92857142857142 18.4 76.07142857142857 4.399999999999999 78.57142857142857 4.399999999999999C81.07142857142857 4.399999999999999 83.21428571428571 14.8 85.71428571428571 14.8C88.21428571428571 14.8 90.35714285714285 30 92.85714285714285 30C95.35714285714285 30 97.49999999999999 8 99.99999999999999 8C99.99999999999999 8 99.99999999999999 8 99.99999999999999 8 " fill="none" fill-opacity="1" stroke="#58bd7d" stroke-opacity="1" stroke-linecap="butt" stroke-width="2" stroke-dasharray="0" class="apexcharts-area" index="0" clip-path="url(#gridRectMasksobw18uo)" pathTo="M 0 30C 2.4999999999999996 30 4.642857142857142 13.600000000000001 7.142857142857142 13.600000000000001C 9.642857142857142 13.600000000000001 11.785714285714285 23.6 14.285714285714285 23.6C 16.785714285714285 23.6 18.928571428571427 4.399999999999999 21.428571428571427 4.399999999999999C 23.928571428571427 4.399999999999999 26.07142857142857 14.8 28.57142857142857 14.8C 31.07142857142857 14.8 33.21428571428571 30 35.71428571428571 30C 38.21428571428571 30 40.357142857142854 22.4 42.857142857142854 22.4C 45.357142857142854 22.4 47.49999999999999 32 49.99999999999999 32C 52.49999999999999 32 54.64285714285714 25.6 57.14285714285714 25.6C 59.64285714285714 25.6 61.78571428571428 24 64.28571428571428 24C 66.78571428571428 24 68.92857142857142 18.4 71.42857142857142 18.4C 73.92857142857142 18.4 76.07142857142857 4.399999999999999 78.57142857142857 4.399999999999999C 81.07142857142857 4.399999999999999 83.21428571428571 14.8 85.71428571428571 14.8C 88.21428571428571 14.8 90.35714285714285 30 92.85714285714285 30C 95.35714285714285 30 97.49999999999999 8 99.99999999999999 8" pathFrom="M -1 40L -1 40L 7.142857142857142 40L 14.285714285714285 40L 21.428571428571427 40L 28.57142857142857 40L 35.71428571428571 40L 42.857142857142854 40L 49.99999999999999 40L 57.14285714285714 40L 64.28571428571428 40L 71.42857142857142 40L 78.57142857142857 40L 85.71428571428571 40L 92.85714285714285 40L 99.99999999999999 40"></path><g id="SvgjsG1018" class="apexcharts-series-markers-wrap" data:realIndex="0"><g class="apexcharts-series-markers"><circle id="SvgjsCircle1060" r="0" cx="0" cy="0" class="apexcharts-marker wy119p015 no-pointer-events" stroke="#ffffff" fill="#58bd7d" fill-opacity="1" stroke-width="2" stroke-opacity="0.9" default-marker-size="0"></circle></g></g></g><g id="SvgjsG1019" class="apexcharts-datalabels" data:realIndex="0"></g></g><line id="SvgjsLine1055" x1="0" y1="0" x2="100" y2="0" stroke="#b6b6b6" stroke-dasharray="0" stroke-width="1" stroke-linecap="butt" class="apexcharts-ycrosshairs"></line><line id="SvgjsLine1056" x1="0" y1="0" x2="100" y2="0" stroke-dasharray="0" stroke-width="0" stroke-linecap="butt" class="apexcharts-ycrosshairs-hidden"></line><g id="SvgjsG1057" class="apexcharts-yaxis-annotations"></g><g id="SvgjsG1058" class="apexcharts-xaxis-annotations"></g><g id="SvgjsG1059" class="apexcharts-point-annotations"></g></g><rect id="SvgjsRect1012" width="0" height="0" x="0" y="0" rx="0" ry="0" opacity="1" stroke-width="0" stroke="none" stroke-dasharray="0" fill="#fefefe"></rect><g id="SvgjsG1043" class="apexcharts-yaxis" rel="0" transform="translate(-18, 0)"></g><g id="SvgjsG1009" class="apexcharts-annotations"></g></svg>