<svg width="20" height="20" viewBox="0 0 20 20" fill="none" xmlns="http://www.w3.org/2000/svg">
                      <path fill-rule="evenodd" clip-rule="evenodd" d="M7.87749 13.2061C4.03349 13.2061 0.750488 13.7871 0.750488 16.1151C0.750488 18.4421 4.01249 19.0451 7.87749 19.0451C11.7215 19.0451 15.0045 18.4631 15.0045 16.1361C15.0045 13.8091 11.7425 13.2061 7.87749 13.2061Z" stroke="#777E90" stroke-width="1.5" stroke-linecap="round" stroke-linejoin="round"></path>
                      <path fill-rule="evenodd" clip-rule="evenodd" d="M7.87757 9.886C10.4136 9.886 12.4456 7.853 12.4456 5.318C12.4456 2.782 10.4136 0.75 7.87757 0.75C5.34257 0.75 3.30957 2.782 3.30957 5.318C3.30957 7.853 5.34257 9.886 7.87757 9.886Z" stroke="#777E90" stroke-width="1.5" stroke-linecap="round" stroke-linejoin="round"></path>
                      <path d="M17.2041 6.66895V10.6789" stroke="#777E90" stroke-width="1.5" stroke-linecap="round" stroke-linejoin="round"></path>
                      <path d="M19.2502 8.67383H15.1602" stroke="#777E90" stroke-width="1.5" stroke-linecap="round" stroke-linejoin="round"></path>
                    </svg>